<?xml version="1.0" standalone="no"?>
<!DOCTYPE svg PUBLIC "-//W3C//DTD SVG 20010904//EN"
 "http://www.w3.org/TR/2001/REC-SVG-20010904/DTD/svg10.dtd">
<svg version="1.0" xmlns="http://www.w3.org/2000/svg"
 width="260.000000pt" height="260.000000pt" viewBox="0 0 260.000000 260.000000"
 preserveAspectRatio="xMidYMid meet">
<metadata>
Created by potrace 1.14, written by Peter Selinger 2001-2017
</metadata>
<g transform="translate(0.000000,260.000000) scale(0.100000,-0.100000)"
fill="#000000" stroke="none">
<path d="M109 2578 c-16 -29 -58 -71 -87 -87 l-22 -12 0 -1239 0 -1240 1300 0
1300 0 0 1300 0 1300 -1240 0 -1239 0 -12 -22z m1215 -392 c41 -17 76 -65 76
-104 0 -72 -64 -162 -115 -162 -52 0 -115 86 -115 158 0 46 29 88 74 108 39
17 40 17 80 0z m-105 -335 c30 -50 46 -54 47 -12 1 15 4 34 9 40 13 22 29 -6
27 -44 -2 -21 2 -35 9 -35 15 0 38 30 39 49 0 21 30 51 51 51 10 0 33 -13 51
-29 l33 -29 3 -150 c3 -141 2 -152 -17 -171 -12 -12 -34 -21 -50 -21 l-29 0
-4 -196 c-3 -182 -4 -197 -23 -210 -11 -9 -29 -12 -40 -9 -27 9 -45 9 -77 1
-43 -12 -68 21 -68 92 0 90 -6 101 -46 95 -25 -4 -34 -2 -35 8 -2 67 1 191 6
199 3 5 -1 23 -10 41 -13 25 -16 57 -13 174 3 126 5 146 23 165 47 52 80 49
114 -9z m134 -1041 c4 -81 22 -140 41 -140 4 0 5 10 1 23 -13 40 -18 198 -6
210 8 8 11 3 11 -17 0 -15 8 -57 17 -92 l17 -64 71 0 c63 0 74 3 95 25 18 19
34 25 66 25 42 0 57 -10 79 -53 6 -12 19 -23 30 -25 33 -6 38 -18 21 -51 -23
-43 -130 -129 -212 -170 -69 -34 -97 -44 -189 -63 -60 -12 -236 -5 -285 12
-133 47 -208 91 -290 168 -66 63 -75 91 -30 102 14 3 30 15 35 27 21 42 37 53
78 53 31 0 48 -7 69 -27 25 -24 34 -26 95 -24 37 1 69 4 71 5 1 2 5 26 9 55 3
28 10 51 14 51 9 0 12 -12 14 -70 1 -19 3 -53 4 -75 3 -36 4 -37 11 -15 4 14
8 38 9 53 1 15 9 40 18 54 l17 26 7 -24 c4 -13 7 -48 8 -77 1 -69 21 -59 22
11 0 29 4 75 8 102 7 48 7 49 12 16 3 -18 7 -65 8 -104 5 -151 29 -97 30 68 1
128 16 131 24 5z"/>
<path d="M1150 1486 c0 -9 5 -16 10 -16 6 0 10 4 10 9 0 6 -4 13 -10 16 -5 3
-10 -1 -10 -9z"/>
</g>
</svg>
